<?xml version="1.0" standalone="no"?>
<!DOCTYPE svg PUBLIC "-//W3C//DTD SVG 20010904//EN"
 "http://www.w3.org/TR/2001/REC-SVG-20010904/DTD/svg10.dtd">
<svg version="1.0" xmlns="http://www.w3.org/2000/svg"
 width="64.000000pt" height="64.000000pt" viewBox="0 0 64.000000 64.000000"
 preserveAspectRatio="xMidYMid meet">

<g transform="translate(0.000000,64.000000) scale(0.100000,-0.100000)"
fill="#6D72C3" stroke="none">
<path d="M28 629 c-16 -9 -18 -30 -18 -204 0 -106 3 -200 6 -209 7 -17 34 -22
34 -6 0 6 -5 10 -10 10 -7 0 -9 68 -8 198 l3 197 232 3 c224 2 233 2 245 -18
7 -11 16 -20 20 -20 15 0 8 27 -10 43 -16 15 -48 17 -248 17 -137 0 -236 -5
-246 -11z"/>
<path d="M50 590 c0 -5 5 -10 10 -10 6 0 10 5 10 10 0 6 -4 10 -10 10 -5 0
-10 -4 -10 -10z"/>
<path d="M90 590 c0 -5 5 -10 10 -10 6 0 10 5 10 10 0 6 -4 10 -10 10 -5 0
-10 -4 -10 -10z"/>
<path d="M135 590 c-3 -5 -1 -10 4 -10 6 0 11 5 11 10 0 6 -2 10 -4 10 -3 0
-8 -4 -11 -10z"/>
<path d="M80 531 c-13 -26 -13 -376 0 -402 9 -16 22 -19 95 -19 50 0 85 4 85
10 0 6 -33 10 -80 10 -74 0 -80 2 -85 23 -3 12 -4 101 -3 197 l3 175 240 0
240 0 3 -198 c1 -120 6 -197 12 -197 15 0 13 393 -2 408 -9 9 -79 12 -255 12
-229 0 -243 -1 -253 -19z"/>
<path d="M110 500 c0 -5 5 -10 10 -10 6 0 10 5 10 10 0 6 -4 10 -10 10 -5 0
-10 -4 -10 -10z"/>
<path d="M155 500 c3 -5 10 -10 16 -10 5 0 9 5 9 10 0 6 -7 10 -16 10 -8 0
-12 -4 -9 -10z"/>
<path d="M200 500 c0 -5 5 -10 10 -10 6 0 10 5 10 10 0 6 -4 10 -10 10 -5 0
-10 -4 -10 -10z"/>
<path d="M430 420 c0 -27 -4 -50 -10 -50 -5 0 -10 18 -10 40 0 22 -4 40 -10
40 -5 0 -10 -18 -10 -40 0 -44 -13 -53 -25 -17 -8 21 -8 21 -12 -5 -5 -35 -21
-36 -25 -3 -5 41 -23 34 -26 -10 -4 -53 -22 -71 -22 -22 0 20 -4 37 -10 37 -5
0 -10 -22 -10 -49 0 -26 -3 -69 -6 -95 l-7 -46 -68 0 c-39 0 -69 -4 -69 -10 0
-6 31 -10 73 -10 69 0 73 -1 89 -30 34 -59 132 -90 190 -59 18 10 27 4 74 -42
52 -52 54 -52 74 -34 11 10 20 23 20 29 0 6 -23 33 -51 62 -44 45 -49 53 -36
66 12 11 13 25 6 59 -4 24 -8 68 -9 97 0 28 -4 52 -10 52 -5 0 -10 -14 -10
-32 0 -48 -18 -21 -22 32 -3 52 -22 61 -26 13 -5 -54 -22 -37 -22 22 0 30 -4
55 -10 55 -5 0 -10 -22 -10 -50z m38 -90 c70 -43 78 -136 17 -197 -29 -29 -39
-33 -85 -33 -46 0 -56 4 -85 33 -19 19 -36 48 -40 69 -14 74 48 148 125 148
19 0 50 -9 68 -20z m101 -244 c29 -29 39 -46 31 -51 -14 -8 -102 73 -94 87 9
14 19 9 63 -36z"/>
<path d="M350 317 c-14 -7 -33 -29 -43 -50 -16 -31 -17 -42 -7 -72 33 -100
167 -100 200 -1 28 87 -67 165 -150 123z m51 -97 c5 0 9 21 9 46 0 27 4 43 10
39 6 -3 10 -21 10 -40 0 -19 5 -37 10 -40 6 -4 10 7 10 24 0 38 15 40 27 4 17
-47 8 -53 -77 -53 -85 0 -94 6 -77 53 12 36 27 34 27 -4 0 -17 4 -28 10 -24 6
3 10 21 10 39 0 51 15 53 18 2 2 -25 7 -46 13 -46z m50 -60 c-13 -11 -36 -20
-51 -20 -15 0 -38 9 -51 20 l-24 19 75 0 75 0 -24 -19z"/>
<path d="M180 284 c0 -41 4 -63 10 -59 6 3 10 33 10 66 0 33 -4 59 -10 59 -6
0 -10 -29 -10 -66z"/>
<path d="M220 270 c0 -27 5 -50 10 -50 6 0 10 23 10 50 0 28 -4 50 -10 50 -5
0 -10 -22 -10 -50z"/>
<path d="M130 261 c0 -17 5 -33 10 -36 6 -4 10 8 10 29 0 20 -4 36 -10 36 -5
0 -10 -13 -10 -29z"/>
</g>
</svg>
