<?xml version="1.0" standalone="no"?>
<!DOCTYPE svg PUBLIC "-//W3C//DTD SVG 20010904//EN"
 "http://www.w3.org/TR/2001/REC-SVG-20010904/DTD/svg10.dtd">
<svg version="1.0" xmlns="http://www.w3.org/2000/svg"
 width="64.000000pt" height="64.000000pt" viewBox="0 0 64.000000 64.000000"
 preserveAspectRatio="xMidYMid meet">

<g transform="translate(0.000000,64.000000) scale(0.100000,-0.100000)"
fill="#6D72C3" stroke="none">
<path d="M300 580 c-8 -19 -22 -32 -39 -36 -55 -12 -56 -13 -28 -42 22 -23 25
-34 20 -65 -6 -42 -4 -43 37 -22 27 14 33 14 60 0 41 -21 43 -20 37 22 -5 31
-2 42 20 65 28 29 27 30 -28 42 -17 4 -31 17 -39 36 -7 16 -16 30 -20 30 -4 0
-13 -14 -20 -30z m35 -29 c3 -10 17 -22 31 -25 25 -7 26 -8 9 -26 -12 -13 -15
-27 -11 -44 6 -24 5 -25 -19 -14 -19 8 -31 8 -50 0 -24 -11 -25 -10 -19 14 4
17 1 31 -11 44 -17 18 -16 19 9 26 14 3 28 15 31 25 4 10 10 19 15 19 5 0 11
-9 15 -19z"/>
<path d="M122 506 c-6 -15 -23 -27 -41 -31 -36 -8 -38 -15 -11 -40 16 -14 19
-26 14 -48 -6 -28 -5 -29 17 -22 13 4 31 7 39 7 8 0 26 -3 39 -7 22 -7 23 -6
17 22 -5 22 -2 34 14 48 27 25 25 32 -11 40 -18 4 -35 16 -41 31 -6 13 -14 24
-18 24 -4 0 -12 -11 -18 -24z m32 -31 c3 -8 12 -15 21 -15 17 0 20 -16 5 -25
-5 -3 -10 -14 -10 -23 0 -12 -8 -17 -30 -17 -22 0 -30 5 -30 17 0 9 -4 20 -10
23 -15 9 -12 25 5 25 9 0 18 7 21 15 4 8 10 15 14 15 4 0 10 -7 14 -15z"/>
<path d="M482 506 c-6 -15 -23 -27 -41 -31 -36 -8 -38 -15 -11 -40 16 -14 19
-26 14 -48 -6 -28 -5 -29 17 -22 13 4 31 7 39 7 8 0 26 -3 39 -7 22 -7 23 -6
17 22 -5 22 -2 34 14 48 27 25 25 32 -11 40 -18 4 -35 16 -41 31 -6 13 -14 24
-18 24 -4 0 -12 -11 -18 -24z m32 -31 c3 -8 12 -15 21 -15 17 0 20 -16 5 -25
-5 -3 -10 -14 -10 -23 0 -12 -8 -17 -30 -17 -22 0 -30 5 -30 17 0 9 -4 20 -10
23 -15 9 -12 25 5 25 9 0 18 7 21 15 4 8 10 15 14 15 4 0 10 -7 14 -15z"/>
<path d="M265 345 c-28 -27 -33 -71 -11 -100 13 -18 11 -22 -19 -42 -17 -12
-40 -38 -49 -58 -15 -31 -20 -34 -33 -23 -29 24 -63 111 -63 161 0 33 -4 46
-11 41 -8 -4 -10 -27 -6 -65 9 -100 73 -183 164 -214 59 -21 62 -4 4 21 -46
21 -52 26 -46 46 12 42 41 73 83 88 37 13 47 13 84 0 42 -15 71 -46 83 -88 6
-20 0 -25 -46 -46 -58 -25 -55 -42 4 -21 91 31 155 114 164 214 4 38 2 61 -6
65 -7 5 -11 -8 -11 -41 0 -50 -34 -137 -63 -161 -14 -12 -18 -8 -36 27 -12 22
-34 48 -50 57 -27 16 -29 19 -15 38 35 51 -4 126 -66 126 -19 0 -40 -9 -55
-25z m95 -15 c11 -11 20 -29 20 -40 0 -26 -34 -60 -60 -60 -26 0 -60 34 -60
60 0 11 9 29 20 40 11 11 29 20 40 20 11 0 29 -9 40 -20z"/>
<path d="M310 40 c0 -5 5 -10 10 -10 6 0 10 5 10 10 0 6 -4 10 -10 10 -5 0
-10 -4 -10 -10z"/>
</g>
</svg>
